<?xml version="1.0" standalone="no"?><!DOCTYPE svg PUBLIC "-//W3C//DTD SVG 1.1//EN" "http://www.w3.org/Graphics/SVG/1.1/DTD/svg11.dtd"><svg t="1611127119390" class="icon" viewBox="0 0 1024 1024" version="1.1" xmlns="http://www.w3.org/2000/svg" p-id="2578" width="32" height="32" xmlns:xlink="http://www.w3.org/1999/xlink"><defs><style type="text/css"></style></defs><path d="M252.695744 958.945355c-10.149151 0-19.868513-3.176342-28.109198-9.18622-14.833847-10.728342-22.13309-28.662807-19.052938-46.822398l45.165666-263.943414-191.656041-186.809663c-13.217023-12.944823-17.83418-31.81459-12.08627-49.278333 5.666046-17.406438 20.497846-29.889751 38.686091-32.511461l264.944208-38.535665 118.477368-240.101403c8.230452-16.500812 24.708751-26.704199 43.042305-26.704199 18.379603 0 34.857902 10.222829 43.00649 26.677593l118.42211 240.129033 264.918625 38.535665c18.043958 2.598174 33.227776 15.431457 38.671765 32.69975 5.622044 17.45658 0.959861 36.253692-12.181437 49.080835l-191.704137 186.815803 45.255717 263.908622c3.109828 17.761526-4.363378 36.181037-19.048845 46.858214-8.140401 5.965875-17.869996 9.142218-28.077475 9.142218 0 0 0 0-0.002047 0-7.764847 0-15.505136-1.902326-22.38687-5.498224l-236.905618-124.557854-236.985436 124.537388C268.265348 957.00926 260.497431 958.945355 252.695744 958.945355zM512.107959 104.226806c-3.435239 0-6.407943 1.847068-7.951089 4.940522l-127.551024 258.492262-285.346887 41.504276c-2.620687 0.3776-5.833869 2.130524-7.071046 5.930059-1.2689 3.855818 0.325411 7.203052 2.232854 9.071609l206.364021 201.143113-48.632627 284.204877c-0.440022 2.594081 0.220011 6.213515 3.40761 8.511861l0.102331 0.073678c1.889023 1.379417 3.781116 1.669012 5.034666 1.669012 1.417279 0 2.832512-0.354064 4.095271-1.023306l255.289314-134.159536 255.092839 134.12065c1.260713 0.660032 2.726088 1.019213 4.197602 1.019213 1.2689 0 3.166109-0.279363 4.982478-1.610684 2.738367-1.990331 4.105504-5.320169 3.543709-8.526187l-48.749284-284.279578 206.445886-201.179952c1.895163-1.851161 3.485381-5.206582 2.238994-9.05012l-0.062422-0.192382c-1.14508-3.653203-4.447289-5.366218-6.927783-5.722328l-285.330514-41.507346-127.517255-258.573103C518.538415 106.145505 515.437797 104.226806 512.107959 104.226806z" p-id="2579"></path></svg>